<svg width="21" height="21" viewBox="0 0 21 21" fill="none" xmlns="http://www.w3.org/2000/svg">
<path d="M10.0428 1.87183C12.7149 1.87183 13.0318 1.88221 14.0876 1.9324C16.7997 2.06048 18.0665 3.39577 18.1899 6.18923C18.2383 7.28394 18.2475 7.61279 18.2475 10.3855C18.2475 13.159 18.2375 13.487 18.1899 14.5817C18.0657 17.3726 16.8022 18.7105 14.0876 18.8386C13.0318 18.8887 12.7166 18.8991 10.0428 18.8991C7.37079 18.8991 7.05388 18.8887 5.9989 18.8386C3.28015 18.7096 2.02001 17.3683 1.89658 14.5809C1.84821 13.4862 1.83821 13.1582 1.83821 10.3846C1.83821 7.61192 1.84905 7.28394 1.89658 6.18837C2.02085 3.39577 3.28432 2.05962 5.9989 1.93154C7.05471 1.88221 7.37079 1.87183 10.0428 1.87183ZM10.0428 0C7.32492 0 6.98466 0.0121154 5.91717 0.0623077C2.28271 0.235385 0.262831 2.32788 0.0960363 6.10269C0.0468319 7.21125 0.0351562 7.56433 0.0351562 10.3846C0.0351562 13.2049 0.0468319 13.5588 0.0952023 14.6665C0.261997 18.4379 2.27854 20.5338 5.91634 20.7069C6.98466 20.7571 7.32492 20.7692 10.0428 20.7692C12.7608 20.7692 13.1019 20.7571 14.1693 20.7069C17.8005 20.5338 19.8253 18.4413 19.9896 14.6665C20.0388 13.5588 20.0505 13.2049 20.0505 10.3846C20.0505 7.56433 20.0388 7.21125 19.9905 6.10356C19.827 2.33567 17.808 0.23625 14.1702 0.0631731C13.1019 0.0121154 12.7608 0 10.0428 0ZM10.0428 5.05212C7.20483 5.05212 4.90389 7.43971 4.90389 10.3846C4.90389 13.3295 7.20483 15.718 10.0428 15.718C12.8808 15.718 15.1818 13.3304 15.1818 10.3846C15.1818 7.43971 12.8808 5.05212 10.0428 5.05212ZM10.0428 13.8462C8.20059 13.8462 6.70694 12.2971 6.70694 10.3846C6.70694 8.47298 8.20059 6.92308 10.0428 6.92308C11.8851 6.92308 13.3787 8.47298 13.3787 10.3846C13.3787 12.2971 11.8851 13.8462 10.0428 13.8462ZM15.3853 3.59567C14.7214 3.59567 14.1835 4.15385 14.1835 4.84183C14.1835 5.52981 14.7214 6.08798 15.3853 6.08798C16.0483 6.08798 16.5854 5.52981 16.5854 4.84183C16.5854 4.15385 16.0483 3.59567 15.3853 3.59567Z" fill="white"/>
</svg>
