<svg width="22" height="21" viewBox="0 0 22 21" fill="none" xmlns="http://www.w3.org/2000/svg">
<path d="M18.5352 0H2.53516C1.15516 0 0.0351562 1.12 0.0351562 2.5V18.5C0.0351562 19.88 1.15516 21 2.53516 21H18.5352C19.9152 21 21.0352 19.88 21.0352 18.5V2.5C21.0352 1.12 19.9152 0 18.5352 0ZM6.53516 8V17.5H3.53516V8H6.53516ZM3.53516 5.235C3.53516 4.535 4.13516 4 5.03516 4C5.93516 4 6.50016 4.535 6.53516 5.235C6.53516 5.935 5.97516 6.5 5.03516 6.5C4.13516 6.5 3.53516 5.935 3.53516 5.235ZM17.5352 17.5H14.5352C14.5352 17.5 14.5352 12.87 14.5352 12.5C14.5352 11.5 14.0352 10.5 12.7852 10.48H12.7452C11.5352 10.48 11.0352 11.51 11.0352 12.5C11.0352 12.955 11.0352 17.5 11.0352 17.5H8.03516V8H11.0352V9.28C11.0352 9.28 12.0002 8 13.9402 8C15.9252 8 17.5352 9.365 17.5352 12.13V17.5Z" fill="white"/>
</svg>
