<svg width="21" height="21" viewBox="0 0 21 21" fill="none" xmlns="http://www.w3.org/2000/svg">
<path fill-rule="evenodd" clip-rule="evenodd" d="M0 2.96703C0 1.32839 1.28017 0 2.85934 0H4.16665C4.98669 0 5.70149 0.579122 5.90038 1.40464L6.95433 5.77922C7.12872 6.50304 6.86807 7.26483 6.29285 7.71249L5.05989 8.67204C4.93185 8.77168 4.90402 8.91759 4.93998 9.01947C6.02225 12.0852 8.36882 14.5202 11.3233 15.6432C11.4215 15.6805 11.5621 15.6516 11.6581 15.5188L12.5828 14.2394C13.0142 13.6425 13.7484 13.372 14.4459 13.553L18.6617 14.6466C19.4573 14.853 20.0154 15.5947 20.0154 16.4456V17.8022C20.0154 19.4408 18.7352 20.7692 17.156 20.7692H15.0115C6.72089 20.7692 0 13.7952 0 5.19231V2.96703Z" fill="white"/>
</svg>
