<svg width="24" height="22" viewBox="0 0 24 22" fill="none" xmlns="http://www.w3.org/2000/svg">
<path fill-rule="evenodd" clip-rule="evenodd" d="M9.78155 1.69231C5.38451 1.69231 1.82001 5.10183 1.82001 9.30769C1.82001 13.5136 5.38451 16.9231 9.78155 16.9231C11.9803 16.9231 13.9695 16.0716 15.4112 14.6926C16.8529 13.3135 17.7431 11.4109 17.7431 9.30769C17.7431 5.10183 14.1786 1.69231 9.78155 1.69231ZM0.0507812 9.30769C0.0507812 4.1672 4.4074 0 9.78155 0C15.1557 0 19.5123 4.1672 19.5123 9.30769C19.5123 11.5729 18.6654 13.6502 17.2594 15.2638L22.7917 20.5555C23.1371 20.886 23.1371 21.4217 22.7917 21.7522C22.4462 22.0826 21.8861 22.0826 21.5406 21.7522L16.0084 16.4604C14.3215 17.8053 12.1498 18.6154 9.78155 18.6154C4.4074 18.6154 0.0507812 14.4482 0.0507812 9.30769Z" fill="white"/>
</svg>
